<svg width="20" height="20" viewBox="0 0 20 20" fill="none" xmlns="http://www.w3.org/2000/svg">
<g filter="url(#filter0_d_5240_15553)">
<g clip-path="url(#clip0_5240_15553)">
<path fillRule="evenodd" clipRule="evenodd" d="M1 1H35.2003V2.38463H1V1ZM1 3.76926H35.2003V5.15389H1V3.76926ZM1 6.53852H35.2003V7.92314H1V6.53852ZM1 9.30777H35.2003V10.6924H1V9.30777ZM1 12.077H35.2003V13.4617H1V12.077ZM1 14.8463H35.2003V16.2309H1V14.8463ZM1 17.6155H35.2003V19.0002H1V17.6155Z" fill="#BD3D44"/>
<path fillRule="evenodd" clipRule="evenodd" d="M1 2.38477H35.2003V3.76939H1V2.38477ZM1 5.15402H35.2003V6.53865H1V5.15402ZM1 7.92328H35.2003V9.30791H1V7.92328ZM1 10.6925H35.2003V12.0772H1V10.6925ZM1 13.4618H35.2003V14.8464H1V13.4618ZM1 16.2311H35.2003V17.6157H1V16.2311Z" fill="white"/>
<path fillRule="evenodd" clipRule="evenodd" d="M1 1H14.6801V10.6924H1V1Z" fill="#192F5D"/>
<path fillRule="evenodd" clipRule="evenodd" d="M2.13536 1.41602L2.27382 1.80371H2.66152L2.34305 2.0391L2.46767 2.41295L2.13536 2.17756L1.83074 2.41295L1.95536 2.0391L1.62305 1.80371H2.03844L2.13536 1.41602ZM4.41999 1.41602L4.54461 1.80371H4.94615L4.61384 2.0391L4.75231 2.41295L4.41999 2.17756L4.08768 2.41295L4.22615 2.0391L3.89384 1.80371H4.29538L4.41999 1.41602ZM6.70463 1.41602L6.82925 1.80371H7.23079L6.89848 2.0391L7.03694 2.41295L6.70463 2.17756L6.37232 2.41295L6.51078 2.0391L6.17847 1.80371H6.58001L6.70463 1.41602ZM8.97542 1.41602L9.11388 1.80371H9.50158L9.18311 2.0391L9.30773 2.41295L8.97542 2.17756L8.65696 2.41295L8.78157 2.0391L8.44926 1.80371H8.86465L8.97542 1.41602ZM11.2601 1.41602L11.3847 1.80371H11.7862L11.4539 2.0391L11.5924 2.41295L11.2462 2.17756L10.9277 2.41295L11.0524 2.0391L10.72 1.80371H11.1216L11.2601 1.41602ZM13.5447 1.41602L13.6693 1.80371H14.0708L13.7385 2.0391L13.877 2.41295L13.5447 2.17756L13.2124 2.41295L13.3508 2.0391L13.0185 1.80371H13.4201L13.5447 1.41602ZM3.2846 2.38525L3.40922 2.77295H3.81076L3.47845 3.00834L3.61691 3.38219L3.2846 3.1468L2.95229 3.38219L3.09075 3.00834L2.75844 2.77295H3.15998L3.2846 2.38525ZM5.55539 2.38525L5.69385 2.77295H6.08155L5.76308 3.00834L5.8877 3.38219L5.55539 3.1468L5.23693 3.38219L5.36154 3.00834L5.02923 2.77295H5.44462L5.55539 2.38525ZM7.84003 2.38525L7.96464 2.77295H8.36618L8.03387 3.00834L8.17234 3.38219L7.84003 3.1468L7.50771 3.38219L7.64618 3.00834L7.31387 2.77295H7.71541L7.84003 2.38525ZM10.1247 2.38525L10.2493 2.77295H10.6508L10.3185 3.00834L10.457 3.38219L10.1247 3.1468L9.79235 3.38219L9.93081 3.00834L9.5985 2.77295H10L10.1247 2.38525ZM12.3955 2.38525L12.5339 2.77295H12.9078L12.5893 3.00834L12.7139 3.38219L12.3816 3.1468L12.0631 3.38219L12.1878 3.00834L11.8554 2.77295H12.2708L12.3955 2.38525ZM2.14921 3.35449L2.25998 3.74219H2.67536L2.34305 3.97758L2.46767 4.35143L2.13536 4.11604L1.83074 4.35143L1.95536 3.97758L1.62305 3.74219H2.03844L2.14921 3.35449ZM4.41999 3.35449L4.54461 3.74219H4.94615L4.62769 3.97758L4.75231 4.35143L4.41999 4.11604L4.10153 4.35143L4.22615 3.97758L3.89384 3.74219H4.29538L4.41999 3.35449ZM6.70463 3.35449L6.82925 3.74219H7.23079L6.89848 3.97758L7.03694 4.35143L6.70463 4.11604L6.37232 4.35143L6.51078 3.97758L6.17847 3.74219H6.58001L6.70463 3.35449ZM8.97542 3.35449L9.11388 3.74219H9.50158L9.18311 3.97758L9.30773 4.35143L8.97542 4.11604L8.65696 4.35143L8.78157 3.97758L8.44926 3.74219H8.86465L8.97542 3.35449ZM11.2601 3.35449L11.3847 3.74219H11.7862L11.4677 3.97758L11.5924 4.35143L11.2601 4.11604L10.9416 4.35143L11.0662 3.97758L10.7339 3.74219H11.1354L11.2601 3.35449ZM13.5447 3.35449L13.6693 3.74219H14.0708L13.7385 3.97758L13.877 4.35143L13.5447 4.11604L13.2124 4.35143L13.3508 3.97758L13.0185 3.74219H13.4201L13.5447 3.35449ZM3.2846 4.32373L3.40922 4.71143H3.81076L3.47845 4.94681L3.61691 5.32066L3.2846 5.08528L2.95229 5.32066L3.09075 4.94681L2.75844 4.71143H3.15998L3.2846 4.32373ZM5.55539 4.32373L5.69385 4.71143H6.08155L5.76308 4.94681L5.8877 5.32066L5.55539 5.08528L5.23693 5.32066L5.36154 4.94681L5.02923 4.71143H5.44462L5.55539 4.32373ZM7.84003 4.32373L7.96464 4.71143H8.36618L8.04772 4.94681L8.17234 5.32066L7.84003 5.08528L7.52156 5.32066L7.64618 4.94681L7.31387 4.71143H7.71541L7.84003 4.32373ZM10.1247 4.32373L10.2493 4.71143H10.6508L10.3185 4.94681L10.457 5.32066L10.1247 5.08528L9.79235 5.32066L9.93081 4.94681L9.5985 4.71143H10L10.1247 4.32373ZM12.3955 4.32373L12.5339 4.71143H12.9078L12.5893 4.94681L12.7139 5.32066L12.3816 5.08528L12.0631 5.32066L12.1878 4.94681L11.8554 4.71143H12.2708L12.3955 4.32373ZM2.14921 5.29297L2.25998 5.68067H2.67536L2.34305 5.91605L2.46767 6.2899L2.13536 6.05452L1.83074 6.2899L1.95536 5.91605L1.62305 5.68067H2.03844L2.14921 5.29297ZM4.41999 5.29297L4.54461 5.68067H4.94615L4.62769 5.91605L4.75231 6.2899L4.41999 6.05452L4.10153 6.2899L4.22615 5.91605L3.89384 5.68067H4.29538L4.41999 5.29297ZM6.70463 5.29297L6.82925 5.68067H7.23079L6.89848 5.91605L7.03694 6.2899L6.70463 6.05452L6.37232 6.2899L6.51078 5.91605L6.17847 5.68067H6.58001L6.70463 5.29297ZM8.97542 5.29297L9.11388 5.68067H9.50158L9.18311 5.91605L9.30773 6.2899L8.97542 6.05452L8.65696 6.2899L8.78157 5.91605L8.44926 5.68067H8.86465L8.97542 5.29297ZM11.2601 5.29297L11.3847 5.68067H11.7862L11.4677 5.91605L11.5924 6.2899L11.2601 6.05452L10.9416 6.2899L11.0662 5.91605L10.7339 5.68067H11.1354L11.2601 5.29297ZM13.5447 5.29297L13.6693 5.68067H14.0708L13.7385 5.91605L13.877 6.2899L13.5447 6.05452L13.2124 6.2899L13.3508 5.91605L13.0185 5.68067H13.4201L13.5447 5.29297ZM3.2846 6.26221L3.40922 6.64991H3.81076L3.47845 6.88529L3.61691 7.25914L3.2846 7.02376L2.95229 7.25914L3.09075 6.88529L2.75844 6.64991H3.15998L3.2846 6.26221ZM5.55539 6.26221L5.69385 6.64991H6.08155L5.76308 6.88529L5.8877 7.25914L5.55539 7.02376L5.23693 7.25914L5.36154 6.88529L5.02923 6.64991H5.44462L5.55539 6.26221ZM7.84003 6.26221L7.96464 6.64991H8.36618L8.04772 6.88529L8.17234 7.25914L7.84003 7.02376L7.52156 7.25914L7.64618 6.88529L7.31387 6.64991H7.71541L7.84003 6.26221ZM10.1247 6.26221L10.2493 6.64991H10.6508L10.3185 6.88529L10.457 7.25914L10.1247 7.02376L9.79235 7.25914L9.93081 6.88529L9.5985 6.64991H10L10.1247 6.26221ZM12.3955 6.26221L12.5339 6.64991H12.9078L12.5893 6.88529L12.7139 7.25914L12.3816 7.02376L12.0631 7.25914L12.1878 6.88529L11.8554 6.64991H12.2708L12.3955 6.26221ZM2.14921 7.23145L2.25998 7.61914H2.67536L2.34305 7.85453L2.46767 8.22838L2.13536 7.99299L1.83074 8.22838L1.95536 7.85453L1.62305 7.61914H2.03844L2.14921 7.23145ZM4.41999 7.23145L4.54461 7.61914H4.94615L4.62769 7.85453L4.75231 8.22838L4.41999 7.99299L4.10153 8.22838L4.22615 7.85453L3.89384 7.61914H4.29538L4.41999 7.23145ZM6.70463 7.23145L6.82925 7.61914H7.23079L6.89848 7.85453L7.03694 8.22838L6.70463 7.99299L6.37232 8.22838L6.51078 7.85453L6.17847 7.61914H6.58001L6.70463 7.23145ZM8.97542 7.23145L9.11388 7.61914H9.50158L9.18311 7.85453L9.30773 8.22838L8.97542 7.99299L8.65696 8.22838L8.78157 7.85453L8.44926 7.61914H8.86465L8.97542 7.23145ZM11.2601 7.23145L11.3847 7.61914H11.7862L11.4677 7.85453L11.5924 8.22838L11.2601 7.99299L10.9416 8.22838L11.0662 7.85453L10.7339 7.61914H11.1354L11.2601 7.23145ZM13.5447 7.23145L13.6693 7.61914H14.0708L13.7385 7.85453L13.877 8.22838L13.5447 7.99299L13.2124 8.22838L13.3508 7.85453L13.0185 7.61914H13.4201L13.5447 7.23145ZM3.2846 8.20069L3.40922 8.58838H3.81076L3.47845 8.82377L3.61691 9.19762L3.2846 8.96223L2.95229 9.19762L3.09075 8.82377L2.75844 8.58838H3.15998L3.2846 8.20069ZM5.55539 8.20069L5.69385 8.58838H6.08155L5.76308 8.82377L5.8877 9.19762L5.55539 8.96223L5.23693 9.19762L5.36154 8.82377L5.02923 8.58838H5.44462L5.55539 8.20069ZM7.84003 8.20069L7.96464 8.58838H8.36618L8.04772 8.82377L8.17234 9.19762L7.84003 8.96223L7.52156 9.19762L7.64618 8.82377L7.31387 8.58838H7.71541L7.84003 8.20069ZM10.1247 8.20069L10.2493 8.58838H10.6508L10.3185 8.82377L10.457 9.19762L10.1247 8.96223L9.79235 9.19762L9.93081 8.82377L9.5985 8.58838H10L10.1247 8.20069ZM12.3955 8.20069L12.5339 8.58838H12.9078L12.5893 8.82377L12.7139 9.19762L12.3816 8.96223L12.0631 9.19762L12.1878 8.82377L11.8554 8.58838H12.2708L12.3955 8.20069ZM2.14921 9.16993L2.25998 9.55762H2.67536L2.34305 9.79301L2.46767 10.1669L2.13536 9.93147L1.83074 10.1669L1.95536 9.79301L1.62305 9.55762H2.03844L2.14921 9.16993ZM4.41999 9.16993L4.54461 9.55762H4.94615L4.62769 9.79301L4.75231 10.1669L4.41999 9.93147L4.10153 10.1669L4.22615 9.79301L3.89384 9.55762H4.29538L4.41999 9.16993ZM6.70463 9.16993L6.82925 9.55762H7.23079L6.89848 9.79301L7.03694 10.1669L6.70463 9.93147L6.37232 10.1669L6.51078 9.79301L6.17847 9.55762H6.58001L6.70463 9.16993ZM8.97542 9.16993L9.11388 9.55762H9.50158L9.18311 9.79301L9.30773 10.1669L8.97542 9.93147L8.65696 10.1669L8.78157 9.79301L8.44926 9.55762H8.86465L8.97542 9.16993ZM11.2601 9.16993L11.3847 9.55762H11.7862L11.4677 9.79301L11.5924 10.1669L11.2601 9.93147L10.9416 10.1669L11.0662 9.79301L10.7339 9.55762H11.1354L11.2601 9.16993ZM13.5447 9.16993L13.6693 9.55762H14.0708L13.7385 9.79301L13.877 10.1669L13.5447 9.93147L13.2124 10.1669L13.3508 9.79301L13.0185 9.55762H13.4201L13.5447 9.16993Z" fill="white"/>
</g>
</g>
<defs>
<filter id="filter0_d_5240_15553" x="-1" y="-1" width="22" height="22" filterUnits="userSpaceOnUse" color-interpolation-filters="sRGB">
<feFlood flood-opacity="0" result="BackgroundImageFix"/>
<feColorMatrix in="SourceAlpha" type="matrix" values="0 0 0 0 0 0 0 0 0 0 0 0 0 0 0 0 0 0 127 0" result="hardAlpha"/>
<feOffset/>
<feGaussianBlur stdDeviation="1"/>
<feComposite in2="hardAlpha" operator="out"/>
<feColorMatrix type="matrix" values="0 0 0 0 0 0 0 0 0 0 0 0 0 0 0 0 0 0 0.15 0"/>
<feBlend mode="normal" in2="BackgroundImageFix" result="effect1_dropShadow_5240_15553"/>
<feBlend mode="normal" in="SourceGraphic" in2="effect1_dropShadow_5240_15553" result="shape"/>
</filter>
<clipPath id="clip0_5240_15553">
<rect x="1" y="1" width="18" height="18" rx="9" fill="white"/>
</clipPath>
</defs>
</svg>
